<svg width="155" height="221" viewBox="0 0 155 221" fill="none" xmlns="http://www.w3.org/2000/svg">
<path d="M77 0C77 7.0062 74.817 18.3234 77.603 24.7901C79.42 29.0073 86.233 31.5727 90 33.7191C100.026 39.4316 110.05 45.1671 120 51.0108C123.672 53.1674 128.487 57.333 133 56.9606C140.063 56.3779 147.646 48.9702 154 46V44C127.294 31.5163 103.718 12.4744 77 0Z" fill="#348C74" fill-opacity="0.3"/>
<path d="M76 1C58.068 11.575 39.912 21.782 22 32.3966C16.394 35.7188 5.40628 39.4779 2.02778 45.213C-1.38752 51.0105 0.999979 63.383 0.999979 70C9.49638 66.444 17.116 61.009 25 56.3086C35.25 50.1982 45.734 44.48 56 38.3966C61.652 35.0473 72.424 31.2991 75.972 25.6211C77.339 23.4346 76.995 20.459 77 18C77.011 12.6557 78.082 5.9626 76 1Z" fill="#348C74"/>
<path d="M23 58C27.167 60.551 32.933 65.551 38 65.551C41.936 65.551 45.751 62.31 49 60.424C58.019 55.1906 69.721 50.5076 77 43C85.294 49.8201 95.696 54.6528 105 60C108.488 62.005 112.822 65.509 117 65.562C121.878 65.623 126.864 61.202 131 59V57C118.729 49.7636 106.36 42.6649 94 35.5787C89.363 32.9201 83.428 27.8961 78 27.3796C72.478 26.8541 66.531 32.1362 62 34.7191C49.318 41.9492 34.181 48.6394 23 58Z" fill="white"/>
<path d="M48 42L49 43L48 42Z" fill="#FC9A9A"/>
<path d="M105 42L106 43L105 42Z" fill="#FDCBCB"/>
<path d="M77 43L78 44L77 43Z" fill="#FDCBCB"/>
<path d="M45 44L46 45L45 44Z" fill="#FCBDBD"/>
<path d="M76 44C77.796 51.5439 74.506 61.743 77.603 68.671C78.891 71.551 82.431 72.945 85 74.421C87.918 76.099 91.477 78.922 95 78.863C101.69 78.753 110.159 71.076 116 68V66C108.105 61.168 100.025 56.6121 92 52C86.88 49.0575 81.791 45.3283 76 44Z" fill="#C3DDD6"/>
<path d="M43 45L44 46L43 45Z" fill="#FCA6A6"/>
<path d="M74 45L75 46L74 45Z" fill="#FCADAD"/>
<path d="M0.999993 113C9.52059 111.046 17.606 104.596 25 100.061C35.837 93.415 47.215 87.687 58 80.95C63.155 77.73 72.534 74.507 75.972 69.39C77.366 67.315 76.995 64.368 77 62V45C68.853 47.3964 61.281 53.0821 54 57.397C43.412 63.671 32.558 69.478 22 75.8C16.335 79.192 5.75269 83.066 2.02779 88.61C0.633595 90.685 1.00489 93.632 0.999993 96V113Z" fill="#348C74"/>
<path d="M41 46L42 47L41 46Z" fill="#FB8E8E"/>
<path d="M72 46L73 47L72 46Z" fill="#FDC4C4"/>
<path d="M112 46L113 47L112 46Z" fill="#FDC5C5"/>
<path d="M78 115C96.256 106.476 113.488 94.703 131 84.719C136.053 81.839 141.016 78.798 146 75.8C148.345 74.39 151.47 73.025 152.972 70.621C154.339 68.435 153.995 65.459 154 63V46C146.246 48.4545 138.962 53.8231 132 58C121.095 64.543 110.024 70.808 99 77.15C93.458 80.338 82.322 84.621 79.028 90.213C75.612 96.011 78 108.383 78 115Z" fill="#348C74"/>
<path d="M40 47L41 48L40 47Z" fill="#FDCACA"/>
<path d="M38 48L39 49L38 48Z" fill="#FCB2B2"/>
<path d="M69 48L70 49L69 48Z" fill="#FCA1A1"/>
<path d="M85 48L86 49L85 48Z" fill="#FCC1C1"/>
<path d="M36 49L37 50L36 49Z" fill="#FC9B9B"/>
<path d="M67 49L68 50L67 49Z" fill="#FDB8B8"/>
<path d="M119 50L120 51L119 50Z" fill="#FDC0C0"/>
<path d="M33 51L34 52L33 51Z" fill="#FDBEBE"/>
<path d="M64 51L65 52L64 51Z" fill="#FB9393"/>
<path d="M31 52L32 53L31 52Z" fill="#FCA7A7"/>
<path d="M62 52L63 53L62 52Z" fill="#FCACAC"/>
<path d="M92 52L93 53L92 52Z" fill="#FDC7C7"/>
<path d="M29 53L30 54L29 53Z" fill="#FB8F8F"/>
<path d="M60 53L61 54L60 53Z" fill="#FDC3C3"/>
<path d="M124 53L125 54L124 53Z" fill="#FDCBCB"/>
<path d="M28 54L29 55L28 54Z" fill="#FDCBCB"/>
<path d="M26 55L27 56L26 55Z" fill="#FCB4B4"/>
<path d="M57 55L58 56L57 55Z" fill="#FB9E9E"/>
<path d="M24 56L25 57L24 56Z" fill="#FB9B9B"/>
<path d="M55 56L56 57L55 56Z" fill="#FDB7B7"/>
<path d="M22 57C15.662 62.212 8.0533 65.84 1 70C4.1017 73.645 10.8875 79.002 16 78.853C18.893 78.768 21.613 76.62 24 75.201C28.884 72.296 33.78 69.249 39 67C33.673 63.306 27.678 60.148 22 57Z" fill="#C3DDD6"/>
<path d="M131.333 57.667C131.278 57.722 131.222 58.778 131.667 58.333C131.722 58.278 131.778 57.222 131.333 57.667Z" fill="#FCAEAE"/>
<path d="M52 58L53 59L52 58Z" fill="#FB9292"/>
<path d="M50 59L51 60L50 59Z" fill="#FCAAAA"/>
<path d="M104 59L105 60L104 59Z" fill="#FDC2C2"/>
<path d="M129 59L130 60L129 59Z" fill="#FDC6C6"/>
<path d="M27 60L28 61L27 60Z" fill="#FDC9C9"/>
<path d="M48 60L49 61L48 60Z" fill="#FDC2C2"/>
<path d="M126 61L127 62L126 61Z" fill="#FCA2A2"/>
<path d="M45 62L46 63L45 62Z" fill="#FB9D9D"/>
<path d="M124 62L125 63L124 62Z" fill="#FCB9B9"/>
<path d="M43 63L44 64L43 63Z" fill="#FDB5B5"/>
<path d="M111 63L112 64L111 63Z" fill="#FDC7C7"/>
<path d="M121 64L122 65L121 64Z" fill="#FB9696"/>
<path d="M40 65L41 66L40 65Z" fill="#FB9191"/>
<path d="M119 65L120 66L119 65Z" fill="#FCADAD"/>
<path d="M116.667 66.333C116.222 66.778 117.278 66.722 117.333 66.667C117.778 66.222 116.722 66.278 116.667 66.333Z" fill="#FDBFBF"/>
<path d="M75 70L76 71L75 70Z" fill="#FCA5A5"/>
<path d="M61 79C64.645 82.76 72.479 88.718 78 88.512C83.436 88.308 90.641 82.947 94 79C89.221 76.483 82.563 70.662 77 70.809C71.748 70.947 65.364 76.329 61 79Z" fill="white"/>
<path d="M78 70L79 71L78 70Z" fill="#FDC9C9"/>
<path d="M73 71L74 72L73 71Z" fill="#FB8D8D"/>
<path d="M72 72L73 73L72 72Z" fill="#FDC9C9"/>
<path d="M70 73L71 74L70 73Z" fill="#FCB2B2"/>
<path d="M68 74L69 75L68 74Z" fill="#FB9999"/>
<path d="M85 74L86 75L85 74Z" fill="#FDC4C4"/>
<path d="M65 76L66 77L65 76Z" fill="#FDBEBE"/>
<path d="M63 77L64 78L63 77Z" fill="#FBA6A6"/>
<path d="M61 78L62 79L61 78Z" fill="#FB8E8E"/>
<path d="M92 78L93 79L92 78Z" fill="#FDBEBE"/>
<path d="M37 92C49.322 101.182 64.425 108.775 78 116C78 107.17 76.946 97.626 79 89C73.045 87.248 66.116 79.969 60 80.209C57.136 80.322 54.374 82.597 52 83.989C47.142 86.838 42.291 90.063 37 92ZM139 79C132.233 83.916 123.99 89.471 116 92C120.807 95.987 126.893 98.353 132 102L155 89C150.266 85.037 144.3 82.191 139 79Z" fill="#C3DDD6"/>
<path d="M93 80L94 81L93 80Z" fill="#FCC2C2"/>
<path d="M65 82L66 83L65 82Z" fill="#FDC8C8"/>
<path d="M90 82L91 83L90 82Z" fill="#FC9E9E"/>
<path d="M88 83L89 84L88 83Z" fill="#FCB5B5"/>
<path d="M85 85L86 86L85 85Z" fill="#FB9292"/>
<path d="M83 86L84 87L83 86Z" fill="#FCA9A9"/>
<path d="M81 87L82 88L81 87Z" fill="#FCC0C0"/>
<path d="M78 158C85.793 155.708 93.043 150.344 100 146.201C110.935 139.688 122.026 133.435 133 126.989C138.573 123.716 149.414 119.957 152.972 114.471C154.349 112.347 153.995 109.405 154 107V90C145.387 92.486 137.585 98.287 130 102.939C119.809 109.189 109.308 114.957 99 121.011C93.33 124.341 82.747 128.074 79.028 133.61C77.634 135.685 78.005 138.632 78 141V158Z" fill="#348C74"/>
<path d="M23 101C27.015 104.759 32.245 107.121 37 109.85C45.359 114.648 53.709 119.483 62 124.397C66.324 126.959 72.777 132.329 78 132.191C83.603 132.044 90.296 126.155 95 123.424C107.326 116.271 119.726 109.238 132 102C128.563 98.7819 121.911 93.7869 117 93.7869C113.414 93.7869 109.946 96.6509 107 98.3969C101.033 101.932 95.023 105.411 89 108.85C85.837 110.655 81.22 114.591 77.424 114.486C74.236 114.398 70.633 111.368 68 109.799C61.712 106.054 55.288 102.544 49 98.7989C45.798 96.8929 41.885 93.7539 38 93.6649C33.079 93.5529 27.11 98.5759 23 101Z" fill="white"/>
<path d="M39 93L40 94L39 93Z" fill="#FDC2C2"/>
<path d="M115 93L116 94L115 93Z" fill="#FCB0B0"/>
<path d="M34 94L35 95L34 94Z" fill="#FDB6B6"/>
<path d="M113 94L114 95L113 94Z" fill="#FB9999"/>
<path d="M32 95L33 96L32 95Z" fill="#FB9D9D"/>
<path d="M110 96L111 97L110 96Z" fill="#FCBCBC"/>
<path d="M123 96L124 97L123 96Z" fill="#FDC4C4"/>
<path d="M29 97L30 98L29 97Z" fill="#FDC2C2"/>
<path d="M108 97L109 98L108 97Z" fill="#FCA5A5"/>
<path d="M27 98L28 99L27 98Z" fill="#FCAAAA"/>
<path d="M106 98L107 99L106 98Z" fill="#FA8D8D"/>
<path d="M25 99L26 100L25 99Z" fill="#FB9292"/>
<path d="M105 99L106 100L105 99Z" fill="#FDC9C9"/>
<path d="M51 100L52 101L51 100Z" fill="#FDC8C8"/>
<path d="M103 100L104 101L103 100Z" fill="#FCB2B2"/>
<path d="M130 100L131 101L130 100Z" fill="#FDBFBF"/>
<path d="M22 101C15.247 105.906 7.5612 110.466 0 114C4.4563 117.731 10.0067 120.227 15 123.201C26.575 130.094 38.348 136.662 50 143.424C58.937 148.611 68.889 156.681 79 159C77.668 153.406 78.003 147.719 78 142C77.999 139.336 78.5 135.885 76.972 133.529C73.979 128.914 65.632 126.141 61 123.397C48.132 115.771 35.235 107.971 22 101Z" fill="#348C74" fill-opacity="0.39"/>
<path d="M101 101L102 102L101 101Z" fill="#FC9A9A"/>
<path d="M24 102L25 103L24 102Z" fill="#FDC0C0"/>
<path d="M98 103L99 104L98 103Z" fill="#FCBEBE"/>
<path d="M129 103L130 104L129 103Z" fill="#FB9494"/>
<path d="M58 104L59 105L58 104Z" fill="#FDC3C3"/>
<path d="M96 104L97 105L96 104Z" fill="#FCA7A7"/>
<path d="M127 104L128 105L127 104Z" fill="#FCABAB"/>
<path d="M94 105L95 106L94 105Z" fill="#FB8E8E"/>
<path d="M125 105L126 106L125 105Z" fill="#FDC3C3"/>
<path d="M31 106L32 107L31 106Z" fill="#FDC5C5"/>
<path d="M93 106L94 107L93 106Z" fill="#FDCACA"/>
<path d="M91 107L92 108L91 107Z" fill="#FCB3B3"/>
<path d="M122 107L123 108L122 107Z" fill="#FB9F9F"/>
<path d="M65 108L66 109L65 108Z" fill="#FDBEBE"/>
<path d="M89 108L90 109L89 108Z" fill="#FB9B9B"/>
<path d="M120 108L121 109L120 108Z" fill="#FDB7B7"/>
<path d="M38 110L39 111L38 110Z" fill="#FDCACA"/>
<path d="M86 110L87 111L86 110Z" fill="#FDBFBF"/>
<path d="M117 110L118 111L117 110Z" fill="#FB9292"/>
<path d="M70 111L71 112L70 111Z" fill="#FDC8C8"/>
<path d="M84 111L85 112L84 111Z" fill="#FCA8A8"/>
<path d="M115 111L116 112L115 111Z" fill="#FCABAB"/>
<path d="M82 112L83 113L82 112Z" fill="#FB9090"/>
<path d="M113 112L114 113L113 112Z" fill="#FDC2C2"/>
<path d="M43 113L44 114L43 113Z" fill="#FDC0C0"/>
<path d="M79 114L80 115L79 114Z" fill="#FDB4B4"/>
<path d="M110 114L111 115L110 114Z" fill="#FB9D9D"/>
<path d="M108 115L109 116L108 115Z" fill="#FDB5B5"/>
<path d="M50 117L51 118L50 117Z" fill="#FDC5C5"/>
<path d="M105 117L106 118L105 117Z" fill="#FB9191"/>
<path d="M103 118L104 119L103 118Z" fill="#FCA9A9"/>
<path d="M101 119L102 120L101 119Z" fill="#FDC0C0"/>
<path d="M57 121L58 122L57 121Z" fill="#FDCACA"/>
<path d="M98 121L99 122L98 121Z" fill="#FC9D9D"/>
<path d="M96 122L97 123L96 122Z" fill="#FCB4B4"/>
<path d="M140 122L141 123L140 122Z" fill="#FBA4A4"/>
<path d="M94 123L95 124L94 123Z" fill="#FDCBCB"/>
<path d="M138 123L139 124L138 123Z" fill="#FB8D8D"/>
<path d="M62 124L63 125L62 124Z" fill="#FDC0C0"/>
<path d="M93 124L94 125L93 124Z" fill="#FA9090"/>
<path d="M137 124L138 125L137 124Z" fill="#FDC9C9"/>
<path d="M91 125L92 126L91 125Z" fill="#FCA8A8"/>
<path d="M135 125L136 126L135 125Z" fill="#FCB1B1"/>
<path d="M89 126L90 127L89 126Z" fill="#FCBFBF"/>
<path d="M133 126L134 127L133 126Z" fill="#FB9999"/>
<path d="M24 128L25 129L24 128ZM69 128L70 129L69 128Z" fill="#FDC5C5"/>
<path d="M86 128L87 129L86 128Z" fill="#FC9B9B"/>
<path d="M130 128L131 129L130 128Z" fill="#FDBEBE"/>
<path d="M84 129L85 130L84 129Z" fill="#FCB3B3"/>
<path d="M128 129L129 130L128 129Z" fill="#FCA6A6"/>
<path d="M82 130L83 131L82 130Z" fill="#FDCBCB"/>
<path d="M126 130L127 131L126 130Z" fill="#FB8E8E"/>
<path d="M81 131L82 132L81 131Z" fill="#FB8F8F"/>
<path d="M125 131L126 132L125 131Z" fill="#FDCACA"/>
<path d="M31 132L32 133L31 132Z" fill="#FDC1C1"/>
<path d="M76 132L77 133L76 132Z" fill="#FDCACA"/>
<path d="M79 132L80 133L79 132Z" fill="#FCA6A6"/>
<path d="M123 132L124 133L123 132Z" fill="#FCB2B2"/>
<path d="M121 133L122 134L121 133Z" fill="#FB9B9B"/>
<path d="M36 135L37 136L36 135Z" fill="#FDCBCB"/>
<path d="M118 135L119 136L118 135Z" fill="#FDBFBF"/>
<path d="M116 136L117 137L116 136Z" fill="#FCA7A7"/>
<path d="M114 137L115 138L114 137Z" fill="#FB9090"/>
<path d="M43 139L44 140L43 139Z" fill="#FDC6C6"/>
<path d="M111 139L112 140L111 139Z" fill="#FCB3B3"/>
<path d="M109 140L110 141L109 140Z" fill="#FB9C9C"/>
<path d="M106 142L107 143L106 142ZM50 143L51 144L50 143Z" fill="#FDC1C1"/>
<path d="M104 143L105 144L104 143Z" fill="#FCA8A8"/>
<path d="M102 144L103 145L102 144Z" fill="#FB9191"/>
<path d="M99 146L100 147L99 146Z" fill="#FCB5B5"/>
<path d="M97 147L98 148L97 147Z" fill="#FC9D9D"/>
<path d="M94 149L95 150L94 149Z" fill="#FCC1C1"/>
<path d="M62 150L63 151L62 150Z" fill="#FDC7C7"/>
<path d="M92 150L93 151L92 150Z" fill="#FCAAAA"/>
<path d="M90 151L91 152L90 151Z" fill="#FB9292"/>
<path d="M87 153L88 154L87 153Z" fill="#FCB6B6"/>
<path d="M69 154L70 155L69 154Z" fill="#FDC2C2"/>
<path d="M85 154L86 155L85 154Z" fill="#FC9F9F"/>
<path d="M82 156L83 157L82 156Z" fill="#FCC2C2"/>
<path d="M80 157L81 158L80 157Z" fill="#FCABAB"/>
<path d="M77 159L78 160L77 159Z" fill="#FDC9C9"/>
<path d="M12.7232 194.328C12.7232 191.832 13.2632 189.612 14.3432 187.668C15.4232 185.7 16.9232 184.176 18.8432 183.096C20.7872 181.992 22.9832 181.44 25.4312 181.44C28.4312 181.44 30.9992 182.232 33.1352 183.816C35.2712 185.4 36.6992 187.56 37.4192 190.296H30.6512C30.1472 189.24 29.4272 188.436 28.4912 187.884C27.5792 187.332 26.5352 187.056 25.3592 187.056C23.4632 187.056 21.9272 187.716 20.7512 189.036C19.5752 190.356 18.9872 192.12 18.9872 194.328C18.9872 196.536 19.5752 198.3 20.7512 199.62C21.9272 200.94 23.4632 201.6 25.3592 201.6C26.5352 201.6 27.5792 201.324 28.4912 200.772C29.4272 200.22 30.1472 199.416 30.6512 198.36H37.4192C36.6992 201.096 35.2712 203.256 33.1352 204.84C30.9992 206.4 28.4312 207.18 25.4312 207.18C22.9832 207.18 20.7872 206.64 18.8432 205.56C16.9232 204.456 15.4232 202.932 14.3432 200.988C13.2632 199.044 12.7232 196.824 12.7232 194.328ZM53.537 186.696C55.841 186.696 57.689 187.464 59.081 189C60.473 190.512 61.169 192.6 61.169 195.264V207H55.049V196.092C55.049 194.748 54.701 193.704 54.005 192.96C53.309 192.216 52.373 191.844 51.197 191.844C50.021 191.844 49.085 192.216 48.389 192.96C47.693 193.704 47.345 194.748 47.345 196.092V207H41.189V180.36H47.345V189.612C47.969 188.724 48.821 188.016 49.901 187.488C50.981 186.96 52.193 186.696 53.537 186.696ZM64.2228 196.92C64.2228 194.856 64.6068 193.044 65.3748 191.484C66.1668 189.924 67.2348 188.724 68.5788 187.884C69.9228 187.044 71.4228 186.624 73.0788 186.624C74.4948 186.624 75.7308 186.912 76.7868 187.488C77.8668 188.064 78.6948 188.82 79.2708 189.756V186.912H85.4268V207H79.2708V204.156C78.6708 205.092 77.8308 205.848 76.7508 206.424C75.6948 207 74.4588 207.288 73.0428 207.288C71.4108 207.288 69.9228 206.868 68.5788 206.028C67.2348 205.164 66.1668 203.952 65.3748 202.392C64.6068 200.808 64.2228 198.984 64.2228 196.92ZM79.2708 196.956C79.2708 195.42 78.8388 194.208 77.9748 193.32C77.1348 192.432 76.1028 191.988 74.8788 191.988C73.6548 191.988 72.6108 192.432 71.7468 193.32C70.9068 194.184 70.4868 195.384 70.4868 196.92C70.4868 198.456 70.9068 199.68 71.7468 200.592C72.6108 201.48 73.6548 201.924 74.8788 201.924C76.1028 201.924 77.1348 201.48 77.9748 200.592C78.8388 199.704 79.2708 198.492 79.2708 196.956ZM101.076 201.78V207H97.9444C95.7124 207 93.9724 206.46 92.7244 205.38C91.4764 204.276 90.8524 202.488 90.8524 200.016V192.024H88.4044V186.912H90.8524V182.016H97.0084V186.912H101.04V192.024H97.0084V200.088C97.0084 200.688 97.1524 201.12 97.4404 201.384C97.7284 201.648 98.2084 201.78 98.8804 201.78H101.076ZM110.265 201.924H118.977V207H103.389V202.104L111.741 191.988H103.461V186.912H118.797V191.808L110.265 201.924ZM142.885 186.912L130.285 216.54H123.661L128.269 206.316L120.097 186.912H126.973L131.617 199.476L136.225 186.912H142.885Z" fill="#348C74"/>
</svg>
